<svg width="76" height="45" viewBox="0 0 76 45" fill="none" xmlns="http://www.w3.org/2000/svg">
<g clip-path="url(#clip0_654_5243)">
<path d="M10.4119 40.2C8.78794 40.2 7.38794 39.852 6.21194 39.156C5.03594 38.46 4.13594 37.46 3.51194 36.156C2.88794 34.844 2.57594 33.284 2.57594 31.476C2.57594 29.716 2.89194 28.184 3.52394 26.88C4.15594 25.568 5.05994 24.56 6.23594 23.856C7.41994 23.152 8.81194 22.8 10.4119 22.8C12.2359 22.8 13.7679 23.268 15.0079 24.204C16.2559 25.14 17.0639 26.644 17.4319 28.716V28.752C17.4319 28.832 17.3879 28.872 17.2999 28.872H15.3679C15.2879 28.872 15.2399 28.828 15.2239 28.74C14.9759 27.332 14.4279 26.284 13.5799 25.596C12.7399 24.9 11.6719 24.552 10.3759 24.552C9.22394 24.552 8.23594 24.836 7.41194 25.404C6.58794 25.972 5.95994 26.776 5.52794 27.816C5.10394 28.856 4.89194 30.076 4.89194 31.476C4.89194 32.996 5.10794 34.276 5.53994 35.316C5.97994 36.356 6.60794 37.14 7.42394 37.668C8.23994 38.188 9.21994 38.448 10.3639 38.448C11.7799 38.448 12.9199 38.06 13.7839 37.284C14.6479 36.5 15.1559 35.368 15.3079 33.888C15.3239 33.8 15.3759 33.756 15.4639 33.756H17.4319C17.5359 33.756 17.5759 33.816 17.5519 33.936C17.2559 36.016 16.4839 37.58 15.2359 38.628C13.9959 39.676 12.3879 40.2 10.4119 40.2ZM24.4304 27.252C25.7744 27.252 26.8104 27.68 27.5384 28.536C28.2664 29.384 28.6304 30.676 28.6304 32.412V34.884L28.6664 39.756C28.6664 39.852 28.6184 39.9 28.5224 39.9H26.5784C26.4824 39.9 26.4344 39.852 26.4344 39.756L26.4704 34.908V32.256C26.4704 31.112 26.2384 30.268 25.7744 29.724C25.3104 29.172 24.6824 28.896 23.8904 28.896C23.1304 28.896 22.4464 29.172 21.8384 29.724C21.2304 30.276 20.7544 31.048 20.4104 32.04L20.4704 39.756C20.4704 39.852 20.4224 39.9 20.3264 39.9H18.4304C18.3344 39.9 18.2864 39.852 18.2864 39.756L18.3464 31.368L18.2864 23.244C18.2864 23.148 18.3344 23.1 18.4304 23.1H20.3264C20.4224 23.1 20.4704 23.148 20.4704 23.244L20.4224 29.592C20.8464 28.896 21.3944 28.332 22.0664 27.9C22.7384 27.468 23.5264 27.252 24.4304 27.252ZM31.4781 33.984C31.5501 37.096 32.7901 38.652 35.1981 38.652C36.1101 38.652 36.8381 38.404 37.3821 37.908C37.9341 37.412 38.3021 36.688 38.4861 35.736C38.5021 35.648 38.5501 35.604 38.6301 35.604H40.4781C40.5181 35.604 40.5541 35.616 40.5861 35.64C40.6181 35.664 40.6301 35.692 40.6221 35.724C40.5021 36.604 40.2101 37.38 39.7461 38.052C39.2901 38.716 38.6741 39.236 37.8981 39.612C37.1221 39.988 36.2141 40.176 35.1741 40.176C33.9181 40.176 32.8461 39.908 31.9581 39.372C31.0701 38.836 30.3981 38.084 29.9421 37.116C29.4941 36.148 29.2701 35.028 29.2701 33.756C29.2701 32.476 29.5021 31.348 29.9661 30.372C30.4381 29.388 31.1101 28.624 31.9821 28.08C32.8541 27.536 33.8781 27.264 35.0541 27.264C36.2461 27.264 37.2701 27.528 38.1261 28.056C38.9821 28.576 39.6381 29.328 40.0941 30.312C40.5581 31.296 40.7981 32.472 40.8141 33.84C40.8141 33.936 40.7661 33.984 40.6701 33.984H31.4781ZM35.0661 28.776C34.0581 28.776 33.2541 29.104 32.6541 29.76C32.0541 30.408 31.6861 31.324 31.5501 32.508H38.4501C38.4261 31.812 38.2821 31.184 38.0181 30.624C37.7541 30.056 37.3701 29.608 36.8661 29.28C36.3701 28.944 35.7701 28.776 35.0661 28.776ZM46.9838 40.176C45.7678 40.176 44.7238 39.916 43.8518 39.396C42.9878 38.868 42.3278 38.12 41.8718 37.152C41.4238 36.184 41.1998 35.052 41.1998 33.756C41.1998 32.452 41.4238 31.312 41.8718 30.336C42.3278 29.36 42.9918 28.604 43.8638 28.068C44.7438 27.532 45.7998 27.264 47.0318 27.264C48.0398 27.264 48.9198 27.448 49.6718 27.816C50.4318 28.176 51.0278 28.688 51.4598 29.352C51.8998 30.016 52.1638 30.788 52.2518 31.668V31.692C52.2518 31.772 52.2038 31.812 52.1078 31.812H50.3558C50.2678 31.812 50.2158 31.768 50.1998 31.68C50.0558 30.752 49.7078 30.04 49.1558 29.544C48.6118 29.048 47.9038 28.8 47.0318 28.8C45.8318 28.808 44.9318 29.24 44.3318 30.096C43.7398 30.944 43.4438 32.16 43.4438 33.744C43.4438 35.352 43.7398 36.572 44.3318 37.404C44.9318 38.236 45.8358 38.652 47.0438 38.652C48.0038 38.652 48.7678 38.368 49.3358 37.8C49.9118 37.224 50.2438 36.428 50.3318 35.412C50.3478 35.316 50.3958 35.268 50.4758 35.268H52.2638C52.3758 35.268 52.4238 35.312 52.4078 35.4C52.3278 36.328 52.0598 37.152 51.6038 37.872C51.1558 38.592 50.5358 39.156 49.7438 39.564C48.9518 39.972 48.0318 40.176 46.9838 40.176ZM62.8842 39.72C62.9002 39.752 62.9082 39.78 62.9082 39.804C62.9082 39.828 62.8962 39.852 62.8722 39.876C62.8482 39.892 62.8202 39.9 62.7882 39.9H60.5682C60.4962 39.9 60.4402 39.868 60.4002 39.804L56.7162 33.588L55.1922 35.244L55.2282 39.768C55.2282 39.864 55.1802 39.912 55.0842 39.912H53.1882C53.0922 39.912 53.0442 39.864 53.0442 39.768L53.1042 31.572L53.0442 23.244C53.0442 23.148 53.0922 23.1 53.1882 23.1H55.0842C55.1802 23.1 55.2282 23.148 55.2282 23.244L55.1802 31.536V32.856L59.9202 27.624C59.9682 27.568 60.0282 27.54 60.1002 27.54H62.2242C62.3042 27.54 62.3442 27.568 62.3442 27.624C62.3442 27.656 62.3282 27.688 62.2962 27.72L58.2522 31.992L62.8842 39.72Z" fill="black"/>
<path d="M54.25 23V34.5L74.25 14" stroke="#639CFF" stroke-width="2.4"/>
<path d="M0.964131 21C0.848131 21 0.790131 20.942 0.790131 20.826L0.848131 11.053L0.804631 0.873998C0.804631 0.757997 0.862631 0.699997 0.978631 0.699997H4.31363C4.4103 0.699997 4.47797 0.74833 4.51663 0.844996L10.9981 17.578L17.3056 0.844996C17.3443 0.74833 17.412 0.699997 17.5086 0.699997H20.6406C20.7566 0.699997 20.8146 0.757997 20.8146 0.873998L20.7711 11.053L20.8291 20.826C20.8291 20.942 20.7711 21 20.6551 21H18.2771C18.1611 21 18.1031 20.942 18.1031 20.826L18.1321 11.4735L18.2191 4.325L11.9551 20.855C11.9261 20.9517 11.8585 21 11.7521 21H9.88163C9.7753 21 9.7028 20.9517 9.66413 20.855L3.16813 4.1075L3.26963 11.4735L3.29863 20.826C3.29863 20.942 3.24063 21 3.12463 21H0.964131ZM22.5449 21C22.4289 21 22.3709 20.942 22.3709 20.826L22.4144 13.286L22.3709 6.239C22.3709 6.123 22.4289 6.065 22.5449 6.065H24.8939C25.0099 6.065 25.0679 6.123 25.0679 6.239L25.0244 13.286L25.0679 20.826C25.0679 20.942 25.0099 21 24.8939 21H22.5449ZM22.5594 4.47C22.4434 4.47 22.3854 4.412 22.3854 4.296V1.8455C22.3854 1.79717 22.3999 1.7585 22.4289 1.7295C22.4676 1.69083 22.5111 1.6715 22.5594 1.6715H24.9084C24.9567 1.6715 24.9954 1.69083 25.0244 1.7295C25.0631 1.7585 25.0824 1.79717 25.0824 1.8455V4.296C25.0824 4.412 25.0244 4.47 24.9084 4.47H22.5594ZM32.4618 20.9275C31.1084 20.9275 29.9533 20.6085 28.9963 19.9705C28.0393 19.3325 27.3143 18.4577 26.8213 17.346C26.3379 16.2247 26.0963 14.9438 26.0963 13.5035C26.0963 12.0728 26.3428 10.7727 26.8358 9.603C27.3384 8.43333 28.0634 7.51017 29.0108 6.8335C29.9581 6.15683 31.0794 5.8185 32.3748 5.8185C33.4284 5.8185 34.3468 6.0505 35.1298 6.5145C35.9128 6.96883 36.5459 7.63583 37.0293 8.5155L36.9713 6.239C36.9713 6.123 37.0293 6.065 37.1453 6.065H39.4508C39.5668 6.065 39.6248 6.123 39.6248 6.239L39.5668 13.6195L39.5813 19.927C39.5813 22.0923 39.0061 23.7598 37.8558 24.9295C36.7054 26.0992 35.0621 26.684 32.9258 26.684C31.7464 26.6937 30.6879 26.5293 29.7503 26.191C28.8126 25.8527 28.0586 25.3307 27.4883 24.625C26.9179 23.9193 26.5941 23.0397 26.5168 21.986V21.957C26.5168 21.8603 26.5699 21.812 26.6763 21.812H28.9673C29.0639 21.812 29.1268 21.8652 29.1558 21.9715C29.2621 22.9382 29.6536 23.6583 30.3303 24.132C31.0166 24.6153 31.9108 24.857 33.0128 24.857C34.2694 24.857 35.2651 24.4462 35.9998 23.6245C36.7344 22.8028 37.1018 21.5607 37.1018 19.898V18.245C36.6184 19.1053 35.9804 19.7675 35.1878 20.2315C34.4048 20.6955 33.4961 20.9275 32.4618 20.9275ZM32.9838 19.1295C34.2694 19.1295 35.2748 18.6607 35.9998 17.723C36.7344 16.7853 37.1018 15.3837 37.1018 13.518C37.1018 11.6427 36.7344 10.1927 35.9998 9.168C35.2748 8.13367 34.2501 7.6165 32.9258 7.6165C31.5821 7.6165 30.5574 8.1385 29.8518 9.1825C29.1461 10.2168 28.7933 11.6282 28.7933 13.4165C28.7933 15.2532 29.1461 16.6645 29.8518 17.6505C30.5671 18.6365 31.6111 19.1295 32.9838 19.1295ZM41.1203 21C41.0043 21 40.9463 20.942 40.9463 20.826L41.0188 13.373L40.9463 6.239C40.9463 6.123 41.0043 6.065 41.1203 6.065H43.4258C43.5321 6.065 43.5853 6.123 43.5853 6.239L43.4983 8.8055C44.0203 7.88717 44.7308 7.17667 45.6298 6.674C46.5385 6.17133 47.5196 5.92 48.5733 5.92C48.8923 5.92 49.2113 5.95383 49.5303 6.0215C49.6366 6.0505 49.6898 6.11817 49.6898 6.2245V7.9065C49.6898 7.95483 49.6705 7.9935 49.6318 8.0225C49.6028 8.0515 49.5593 8.06117 49.5013 8.0515C49.2113 8.00317 48.9213 7.979 48.6313 7.979C47.7516 7.979 46.9396 8.16267 46.1953 8.53C45.4606 8.89733 44.8565 9.45317 44.3828 10.1975C43.9091 10.9322 43.6385 11.8408 43.5708 12.9235L43.5998 20.826C43.5998 20.942 43.5418 21 43.4258 21H41.1203ZM62.2375 13.373L62.2955 20.826C62.2955 20.942 62.2375 21 62.1215 21H59.816C59.7 21 59.642 20.942 59.642 20.826L59.7 18.477C59.207 19.3663 58.5545 20.0575 57.7425 20.5505C56.9402 21.0338 56.0025 21.2755 54.9295 21.2755C53.6245 21.2755 52.508 20.942 51.58 20.275C50.652 19.5983 49.9463 18.68 49.463 17.52C48.9893 16.3503 48.7525 15.0308 48.7525 13.5615C48.7525 12.1115 48.999 10.7968 49.492 9.6175C49.985 8.4285 50.7003 7.49083 51.638 6.8045C52.5853 6.11817 53.697 5.775 54.973 5.775C56.0363 5.775 56.9692 6.007 57.7715 6.471C58.5738 6.935 59.2167 7.6165 59.7 8.5155L59.6275 6.239C59.6275 6.123 59.6855 6.065 59.8015 6.065H62.1215C62.2375 6.065 62.2955 6.123 62.2955 6.239L62.2375 13.373ZM55.5675 19.434C56.8918 19.434 57.9213 18.941 58.656 17.955C59.4003 16.9593 59.7725 15.4948 59.7725 13.5615C59.7725 11.6572 59.4052 10.1927 58.6705 9.168C57.9455 8.13367 56.9208 7.6165 55.5965 7.6165C54.2335 7.6165 53.1992 8.1385 52.4935 9.1825C51.7975 10.2168 51.4495 11.6137 51.4495 13.373C51.4495 15.2193 51.7975 16.6935 52.4935 17.7955C53.1895 18.8878 54.2142 19.434 55.5675 19.434Z" fill="black"/>
</g>
<defs>
<clipPath id="clip0_654_5243">
<rect width="76" height="45" fill="white"/>
</clipPath>
</defs>
</svg>
