<svg width="300" height="223" viewBox="0 0 300 223" fill="none" xmlns="http://www.w3.org/2000/svg">
<path d="M299.281 195.969H0V196.118H299.281V195.969Z" fill="#E6E6E6"/>
<path d="M253.856 204.367H247.505V204.517H253.856V204.367Z" fill="#E6E6E6"/>
<path d="M243.112 204.438H217.284V204.588H243.112V204.438Z" fill="#E6E6E6"/>
<path d="M185.357 203.014H141.77V203.163H185.357V203.014Z" fill="#E6E6E6"/>
<path d="M116.695 205.611H102.862V205.761H116.695V205.611Z" fill="#E6E6E6"/>
<path d="M70.5999 203.086H51.5537V203.236H70.5999V203.086Z" fill="#E6E6E6"/>
<path d="M91.7231 203.086H73.9219V203.236H91.7231V203.086Z" fill="#E6E6E6"/>
<path d="M57.2584 200.47H39.0801V200.619H57.2584V200.47Z" fill="#E6E6E6"/>
<path d="M141.859 169.273H26.2829C25.3775 169.272 24.5097 168.911 23.87 168.27C23.2304 167.629 22.8711 166.761 22.8711 165.855V3.38786C22.879 2.48764 23.2417 1.62688 23.8805 0.992545C24.5193 0.358214 25.3826 0.00154213 26.2829 0H141.859C142.766 0 143.635 0.360087 144.276 1.00105C144.917 1.64201 145.277 2.51133 145.277 3.41778V165.855C145.277 166.762 144.917 167.631 144.276 168.272C143.635 168.913 142.766 169.273 141.859 169.273ZM26.2829 0.119713C25.4172 0.121298 24.5874 0.466318 23.9758 1.07904C23.3642 1.69177 23.0207 2.52213 23.0207 3.38786V165.855C23.0207 166.721 23.3642 167.551 23.9758 168.164C24.5874 168.777 25.4172 169.122 26.2829 169.123H141.859C142.725 169.122 143.556 168.777 144.168 168.165C144.781 167.552 145.126 166.722 145.127 165.855V3.38786C145.126 2.52158 144.781 1.69123 144.168 1.07868C143.556 0.466124 142.725 0.121295 141.859 0.119713H26.2829Z" fill="#E6E6E6"/>
<path d="M271.334 169.273H155.752C154.846 169.272 153.977 168.911 153.337 168.27C152.696 167.63 152.336 166.761 152.334 165.855V3.38786C152.343 2.48709 152.708 1.62634 153.347 0.992171C153.987 0.358005 154.851 0.00152531 155.752 0H271.334C272.233 0.00311521 273.095 0.360483 273.732 0.994646C274.37 1.62881 274.732 2.48867 274.74 3.38786V165.855C274.74 166.76 274.381 167.627 273.743 168.268C273.105 168.908 272.238 169.27 271.334 169.273ZM155.752 0.119713C154.885 0.121295 154.055 0.466124 153.443 1.07868C152.83 1.69123 152.485 2.52158 152.484 3.38786V165.855C152.485 166.722 152.83 167.552 153.443 168.165C154.055 168.777 154.885 169.122 155.752 169.123H271.334C272.2 169.122 273.031 168.777 273.643 168.165C274.256 167.552 274.601 166.722 274.602 165.855V3.38786C274.601 2.52158 274.256 1.69123 273.643 1.07868C273.031 0.466124 272.2 0.121295 271.334 0.119713H155.752Z" fill="#E6E6E6"/>
<path d="M125.602 12.8516H32.376V93.9746H125.602V12.8516Z" fill="#E6E6E6"/>
<path d="M129.421 12.8516H34.1602V93.9746H129.421V12.8516Z" fill="#F0F0F0"/>
<path d="M125.602 93.9746H32.376V97.2308H125.602V93.9746Z" fill="#E6E6E6"/>
<path d="M135.778 93.9746H40.5166V97.2308H135.778V93.9746Z" fill="#F0F0F0"/>
<path d="M124.082 88.6351V18.1904L39.5053 18.1904V88.6351H124.082Z" fill="#FAFAFA"/>
<path d="M53.2002 88.6351L69.517 18.1904H91.9092L75.5924 88.6351H53.2002Z" fill="white"/>
<path d="M42.5813 76.8617C42.4797 76.8617 42.3823 76.8213 42.3104 76.7495C42.2386 76.6777 42.1982 76.5802 42.1982 76.4786V21.6624C42.1982 21.5608 42.2386 21.4633 42.3104 21.3915C42.3823 21.3197 42.4797 21.2793 42.5813 21.2793C42.6829 21.2793 42.7804 21.3197 42.8522 21.3915C42.924 21.4633 42.9644 21.5608 42.9644 21.6624V76.4786C42.9644 76.5802 42.924 76.6777 42.8522 76.7495C42.7804 76.8213 42.6829 76.8617 42.5813 76.8617Z" fill="#E6E6E6"/>
<path d="M80.1836 88.6351L96.5004 18.1904H104.246L87.929 88.6351H80.1836Z" fill="white"/>
<path d="M124.076 88.6292V18.1846H123.4V88.6292H124.076Z" fill="#E6E6E6"/>
<path d="M130.684 18.7705H37.4576L36.9668 17.1484H130.193L130.684 18.7705Z" fill="#E0E0E0"/>
<path d="M130.684 21.4463H37.4576L36.9668 19.8242H130.193L130.684 21.4463Z" fill="#E0E0E0"/>
<path d="M130.684 24.1221H37.4576L36.9668 22.5H130.193L130.684 24.1221Z" fill="#E0E0E0"/>
<path d="M130.684 26.7979H37.4576L36.9668 25.1758H130.193L130.684 26.7979Z" fill="#E0E0E0"/>
<path d="M130.684 29.4727H37.4576L36.9668 27.8506H130.193L130.684 29.4727Z" fill="#E0E0E0"/>
<path d="M130.684 32.1485H37.4576L36.9668 30.5264H130.193L130.684 32.1485Z" fill="#E0E0E0"/>
<path d="M241.334 18.1309H202.134V88.0129H241.334V18.1309Z" fill="#E6E6E6"/>
<path d="M224.215 21.8234C223.624 21.8174 223.049 21.6369 222.56 21.3045C222.072 20.9721 221.693 20.5026 221.471 19.9553C221.249 19.4079 221.194 18.8071 221.313 18.2286C221.432 17.65 221.719 17.1195 222.139 16.704C222.559 16.2884 223.092 16.0063 223.672 15.8932C224.252 15.7802 224.852 15.8412 225.397 16.0685C225.942 16.2959 226.408 16.6795 226.735 17.171C227.063 17.6625 227.238 18.2399 227.238 18.8305C227.23 19.627 226.908 20.3882 226.342 20.9486C225.776 21.509 225.011 21.8234 224.215 21.8234ZM224.215 16.3764C223.743 16.3824 223.283 16.5278 222.893 16.7944C222.503 17.0611 222.201 17.437 222.024 17.875C221.848 18.313 221.804 18.7934 221.9 19.2559C221.996 19.7183 222.226 20.1421 222.562 20.474C222.898 20.8058 223.325 21.0309 223.789 21.1209C224.252 21.2109 224.732 21.1617 225.168 20.9797C225.604 20.7976 225.976 20.4908 226.237 20.0977C226.499 19.7046 226.639 19.2429 226.639 18.7707C226.639 18.4537 226.576 18.1399 226.454 17.8475C226.332 17.555 226.153 17.2898 225.927 17.067C225.702 16.8443 225.434 16.6686 225.14 16.55C224.846 16.4315 224.532 16.3725 224.215 16.3764Z" fill="#E0E0E0"/>
<path d="M245.572 18.1309H205.085V88.0129H245.572V18.1309Z" fill="#F0F0F0"/>
<path d="M242.184 84.6189V21.5186L208.479 21.5186V84.6189H242.184Z" fill="#FAFAFA"/>
<path d="M242.184 84.6189V21.5186H241.765V84.6189H242.184Z" fill="#E0E0E0"/>
<path d="M212.346 112.864C212.346 112.864 212.765 119.909 228.776 119.909C244.788 119.909 245.201 112.864 245.201 112.864H212.346Z" fill="#E6E6E6"/>
<path d="M179.963 125.44H163.61V192.791H179.963V125.44Z" fill="#E6E6E6"/>
<path d="M252.192 192.791H166.753V195.969H252.192V192.791Z" fill="#E6E6E6"/>
<path d="M179.963 192.791H255.328V125.441L179.963 125.441V192.791Z" fill="#F5F5F5"/>
<path d="M186.392 167.34H248.899V150.891H186.392V167.34Z" fill="#E6E6E6"/>
<path d="M186.392 186.793H248.899V170.344H186.392V186.793Z" fill="#E6E6E6"/>
<path d="M226.992 152.693H208.299C208.001 152.693 207.714 152.575 207.503 152.364C207.292 152.152 207.174 151.866 207.174 151.568C207.174 151.269 207.292 150.982 207.503 150.77C207.714 150.558 208 150.438 208.299 150.437H226.992C227.291 150.438 227.577 150.558 227.788 150.77C227.999 150.982 228.117 151.269 228.117 151.568C228.117 151.866 227.999 152.152 227.788 152.364C227.577 152.575 227.291 152.693 226.992 152.693Z" fill="#F5F5F5"/>
<path d="M186.392 147.887H248.899V131.438H186.392V147.887Z" fill="#E6E6E6"/>
<path d="M226.992 133.246H208.299C208 133.244 207.714 133.124 207.503 132.912C207.292 132.7 207.174 132.414 207.174 132.115C207.174 131.816 207.292 131.53 207.503 131.319C207.714 131.108 208.001 130.989 208.299 130.989H226.992C227.291 130.989 227.577 131.108 227.788 131.319C227.999 131.53 228.117 131.816 228.117 132.115C228.117 132.414 227.999 132.7 227.788 132.912C227.577 133.124 227.291 133.244 226.992 133.246Z" fill="#F5F5F5"/>
<path d="M226.992 172.146H208.299C208 172.145 207.714 172.025 207.503 171.813C207.292 171.601 207.174 171.314 207.174 171.015C207.174 170.716 207.292 170.43 207.503 170.219C207.714 170.008 208.001 169.89 208.299 169.89H226.992C227.291 169.89 227.577 170.008 227.788 170.219C227.999 170.43 228.117 170.716 228.117 171.015C228.117 171.314 227.999 171.601 227.788 171.813C227.577 172.025 227.291 172.145 226.992 172.146Z" fill="#F5F5F5"/>
<path d="M257.507 119.91H179.964V125.441H257.507V119.91Z" fill="#EBEBEB"/>
<path d="M161.325 125.446H179.964V119.916H161.325V125.446Z" fill="#E0E0E0"/>
<path d="M169.907 119.91H186.158V100.433H169.907V119.91Z" fill="#E6E6E6"/>
<path d="M214.997 100.438H186.158V119.916H214.997V100.438Z" fill="#FAFAFA"/>
<path d="M207.228 110.734C207.228 112.128 204.235 113.254 200.578 113.254C196.92 113.254 193.934 112.111 193.934 110.734C193.934 109.357 196.926 108.214 200.59 108.214C204.253 108.214 207.228 109.327 207.228 110.734Z" fill="white"/>
<g style="mix-blend-mode:multiply" opacity="0.7">
<path d="M169.908 104.264H215.165V102.929H169.908V104.264Z" fill="#E0E0E0"/>
</g>
<path d="M169.004 103.497H186.152V99.6304H169.004V103.497Z" fill="#E6E6E6"/>
<path d="M215.889 99.625H186.158V103.492H215.889V99.625Z" fill="#FAFAFA"/>
<path d="M104.054 110.171H42.1025L45.9692 195.969H107.92L104.054 110.171Z" fill="#E6E6E6"/>
<path d="M104.952 110.171H43.001L46.8677 195.969H108.819L104.952 110.171Z" fill="#FAFAFA"/>
<path d="M56.6602 195.969H72.9111V176.492H56.6602V195.969Z" fill="#E0E0E0"/>
<path d="M150.712 176.492H72.917V195.969H150.712V176.492Z" fill="#F0F0F0"/>
<g style="mix-blend-mode:multiply" opacity="0.7">
<path d="M56.6594 180.322H150.879V178.987H56.6594V180.322Z" fill="#E0E0E0"/>
</g>
<path d="M55.7682 179.551H72.917V175.684H55.7682V179.551Z" fill="#E0E0E0"/>
<path d="M151.61 175.684H72.917V179.55H151.61V175.684Z" fill="#F0F0F0"/>
<path d="M70.1331 175.684H91.2803V140.494H70.1331V175.684Z" fill="#E6E6E6"/>
<path d="M144.115 140.494H91.2744V175.684H144.115V140.494Z" fill="#EBEBEB"/>
<g style="mix-blend-mode:multiply" opacity="0.7">
<path d="M70.1273 145.475H144.337V143.739H70.1273V145.475Z" fill="#E0E0E0"/>
</g>
<path d="M68.9659 144.469H91.2803V136.472H68.9659V144.469Z" fill="#E6E6E6"/>
<path d="M145.283 136.472H91.2744V144.468H145.283V136.472Z" fill="#EBEBEB"/>
<path d="M149.64 223C213.735 223 265.695 219.966 265.695 216.224C265.695 212.482 213.735 209.448 149.64 209.448C85.5446 209.448 33.585 212.482 33.585 216.224C33.585 219.966 85.5446 223 149.64 223Z" fill="#F5F5F5"/>
<path d="M183.902 33.7832H115.02C110.187 33.7832 106.269 37.7011 106.269 42.5342V207.468C106.269 212.301 110.187 216.219 115.02 216.219H183.902C188.735 216.219 192.653 212.301 192.653 207.468V42.5342C192.653 37.7011 188.735 33.7832 183.902 33.7832Z" fill="#639CFF"/>
<path opacity="0.7" d="M183.902 33.7832H115.02C110.187 33.7832 106.269 37.7011 106.269 42.5342V207.468C106.269 212.301 110.187 216.219 115.02 216.219H183.902C188.735 216.219 192.653 212.301 192.653 207.468V42.5342C192.653 37.7011 188.735 33.7832 183.902 33.7832Z" fill="white"/>
<path d="M186.213 33.4717H117.33C112.497 33.4717 108.579 37.3896 108.579 42.2226V207.156C108.579 211.989 112.497 215.907 117.33 215.907H186.213C191.046 215.907 194.963 211.989 194.963 207.156V42.2226C194.963 37.3896 191.046 33.4717 186.213 33.4717Z" fill="#639CFF"/>
<path opacity="0.2" d="M186.213 33.4717H117.33C112.497 33.4717 108.579 37.3896 108.579 42.2226V207.156C108.579 211.989 112.497 215.907 117.33 215.907H186.213C191.046 215.907 194.963 211.989 194.963 207.156V42.2226C194.963 37.3896 191.046 33.4717 186.213 33.4717Z" fill="black"/>
<path d="M155.141 207.868C155.142 208.639 154.914 209.394 154.487 210.035C154.059 210.677 153.45 211.177 152.738 211.473C152.026 211.769 151.242 211.846 150.486 211.696C149.729 211.546 149.034 211.175 148.489 210.63C147.944 210.084 147.572 209.389 147.422 208.633C147.272 207.876 147.35 207.092 147.645 206.38C147.941 205.668 148.441 205.059 149.083 204.632C149.725 204.204 150.479 203.976 151.25 203.978C152.282 203.978 153.272 204.387 154.001 205.117C154.731 205.847 155.141 206.836 155.141 207.868Z" fill="#639CFF"/>
<path opacity="0.4" d="M155.141 207.868C155.142 208.639 154.914 209.394 154.487 210.035C154.059 210.677 153.45 211.177 152.738 211.473C152.026 211.769 151.242 211.846 150.486 211.696C149.729 211.546 149.034 211.175 148.489 210.63C147.944 210.084 147.572 209.389 147.422 208.633C147.272 207.876 147.35 207.092 147.645 206.38C147.941 205.668 148.441 205.059 149.083 204.632C149.725 204.204 150.479 203.976 151.25 203.978C152.282 203.978 153.272 204.387 154.001 205.117C154.731 205.847 155.141 206.836 155.141 207.868Z" fill="black"/>
<path d="M194.269 202.164H108.315V45.3887H194.867L194.269 202.164Z" fill="#639CFF"/>
<path opacity="0.8" d="M195.029 202.081L108.268 202.182V45.4013L194.951 45.3115L195.029 202.081Z" fill="white"/>
<path opacity="0.33" d="M101.773 48.0166H101.175V55.9296H101.773V48.0166Z" fill="#639CFF"/>
<path opacity="0.33" d="M101.773 58.126H101.175V60.604H101.773V58.126Z" fill="#639CFF"/>
<path d="M176.276 51.877H116.654C113.368 51.877 110.704 54.5407 110.704 57.8267V93.4171C110.704 96.703 113.368 99.3668 116.654 99.3668H176.276C179.562 99.3668 182.226 96.703 182.226 93.4171V57.8267C182.226 54.5407 179.562 51.877 176.276 51.877Z" fill="white"/>
<path opacity="0.27" d="M124.714 70.1561C128.749 68.469 130.653 63.8304 128.966 59.7953C127.279 55.7603 122.64 53.8569 118.605 55.5439C114.57 57.231 112.666 61.8697 114.354 65.9047C116.041 69.9398 120.679 71.8432 124.714 70.1561Z" fill="#639CFF"/>
<path d="M128.2 62.8495C128.205 63.9373 127.933 65.0084 127.409 65.962C126.65 67.3628 125.405 68.438 123.909 68.9854C122.412 69.5328 120.767 69.5146 119.283 68.9344C117.799 68.3542 116.578 67.2519 115.85 65.8347C115.121 64.4175 114.936 62.7831 115.328 61.2386C115.72 59.6942 116.663 58.3462 117.979 57.448C119.295 56.5498 120.894 56.1633 122.475 56.3612C124.056 56.559 125.51 57.3276 126.565 58.5225C127.619 59.7173 128.2 61.2561 128.2 62.8495Z" fill="white"/>
<path opacity="0.27" d="M127.409 65.9557C126.848 66.9905 126.018 67.8546 125.007 68.4568C123.996 69.0589 122.84 69.3768 121.663 69.3768C120.486 69.3768 119.331 69.0589 118.319 68.4568C117.308 67.8546 116.478 66.9905 115.917 65.9557C117.618 64.82 119.618 64.2139 121.663 64.2139C123.709 64.2139 125.708 64.82 127.409 65.9557Z" fill="#639CFF"/>
<path opacity="0.27" d="M121.664 63.5133C123.27 63.5133 124.573 62.2109 124.573 60.6043C124.573 58.9977 123.27 57.6953 121.664 57.6953C120.057 57.6953 118.755 58.9977 118.755 60.6043C118.755 62.2109 120.057 63.5133 121.664 63.5133Z" fill="#639CFF"/>
<path d="M177.839 103.755H115.092C112.668 103.755 110.704 105.719 110.704 108.142V115.989C110.704 118.413 112.668 120.377 115.092 120.377H177.839C180.262 120.377 182.226 118.413 182.226 115.989V108.142C182.226 105.719 180.262 103.755 177.839 103.755Z" fill="white"/>
<path opacity="0.6" d="M194.383 121.987L202.84 145.295C203.058 145.904 203.026 146.576 202.752 147.162C202.477 147.748 201.982 148.202 201.374 148.425L157.002 164.52C156.393 164.739 155.723 164.708 155.137 164.434C154.55 164.161 154.096 163.667 153.872 163.06L145.414 139.746C145.195 139.137 145.226 138.466 145.501 137.88C145.776 137.294 146.272 136.842 146.881 136.622L191.252 120.52C191.862 120.302 192.533 120.334 193.119 120.609C193.706 120.883 194.16 121.379 194.383 121.987Z" fill="#639CFF"/>
<path d="M193.042 120.574L180.358 141.446C179.184 143.381 177.383 144.857 175.255 145.629C173.127 146.401 170.799 146.422 168.656 145.69L145.54 137.801C145.819 137.246 146.298 136.818 146.881 136.604L191.252 120.502C191.836 120.3 192.476 120.326 193.042 120.574Z" fill="#639CFF"/>
<path opacity="0.5" d="M193.042 120.574L180.358 141.446C179.184 143.381 177.383 144.857 175.255 145.629C173.127 146.401 170.799 146.422 168.656 145.69L145.54 137.801C145.819 137.246 146.298 136.818 146.881 136.604L191.252 120.502C191.836 120.3 192.476 120.326 193.042 120.574Z" fill="white"/>
<path opacity="0.6" d="M180.467 162.049L180.06 183.046C180.047 183.594 179.819 184.114 179.424 184.494C179.029 184.874 178.5 185.083 177.953 185.075L137.975 184.297C137.704 184.292 137.436 184.233 137.188 184.124C136.939 184.015 136.715 183.858 136.527 183.663C136.339 183.467 136.191 183.236 136.093 182.984C135.994 182.731 135.946 182.461 135.952 182.19L136.353 161.193C136.36 160.909 136.425 160.629 136.543 160.371C136.661 160.113 136.831 159.881 137.041 159.69C137.43 159.342 137.937 159.154 138.46 159.163L178.437 159.936C178.986 159.948 179.508 160.177 179.888 160.573C180.268 160.969 180.476 161.5 180.467 162.049Z" fill="#639CFF"/>
<path d="M179.838 160.522L163.461 173.164C161.942 174.335 160.069 174.953 158.152 174.916C156.234 174.879 154.387 174.189 152.914 172.96L137.07 159.69C137.46 159.342 137.967 159.154 138.489 159.163L178.467 159.936C178.981 159.954 179.469 160.163 179.838 160.522Z" fill="#639CFF"/>
<path opacity="0.5" d="M179.838 160.522L163.461 173.164C161.942 174.335 160.069 174.953 158.152 174.916C156.234 174.879 154.387 174.189 152.914 172.96L137.07 159.69C137.46 159.342 137.967 159.154 138.489 159.163L178.467 159.936C178.981 159.954 179.469 160.163 179.838 160.522Z" fill="white"/>
<path d="M140.142 38.4098C140.143 38.1377 140.225 37.8722 140.377 37.6466C140.529 37.421 140.744 37.2454 140.996 37.1421C141.247 37.0389 141.524 37.0125 141.791 37.0662C142.057 37.12 142.302 37.2516 142.494 37.4444C142.686 37.6372 142.816 37.8825 142.869 38.1494C142.922 38.4163 142.894 38.6928 142.79 38.944C142.685 39.1952 142.509 39.4098 142.283 39.5608C142.056 39.7118 141.79 39.7924 141.518 39.7924C141.337 39.7924 141.158 39.7566 140.99 39.6871C140.823 39.6175 140.671 39.5156 140.543 39.3871C140.415 39.2586 140.314 39.1062 140.245 38.9384C140.176 38.7707 140.141 38.5911 140.142 38.4098Z" fill="#639CFF"/>
<path d="M146.276 37.0332H157.715C158.079 37.0348 158.428 37.1803 158.686 37.4382C158.944 37.696 159.09 38.0453 159.091 38.4099C159.091 38.7756 158.946 39.1263 158.688 39.3855C158.43 39.6446 158.08 39.791 157.715 39.7926H146.276C145.91 39.791 145.56 39.6446 145.302 39.3855C145.044 39.1263 144.899 38.7756 144.899 38.4099C144.901 38.0453 145.047 37.696 145.304 37.4382C145.562 37.1803 145.911 37.0348 146.276 37.0332Z" fill="#639CFF"/>
<path opacity="0.4" d="M140.142 38.4098C140.143 38.1377 140.225 37.8722 140.377 37.6466C140.529 37.421 140.744 37.2454 140.996 37.1421C141.247 37.0389 141.524 37.0125 141.791 37.0662C142.057 37.12 142.302 37.2516 142.494 37.4444C142.686 37.6372 142.816 37.8825 142.869 38.1494C142.922 38.4163 142.894 38.6928 142.79 38.944C142.685 39.1952 142.509 39.4098 142.283 39.5608C142.056 39.7118 141.79 39.7924 141.518 39.7924C141.337 39.7924 141.158 39.7566 140.99 39.6871C140.823 39.6175 140.671 39.5156 140.543 39.3871C140.415 39.2586 140.314 39.1062 140.245 38.9384C140.176 38.7707 140.141 38.5911 140.142 38.4098Z" fill="black"/>
<path opacity="0.4" d="M146.276 37.0332H157.715C158.079 37.0348 158.428 37.1803 158.686 37.4382C158.944 37.696 159.09 38.0453 159.091 38.4099C159.091 38.7756 158.946 39.1263 158.688 39.3855C158.43 39.6446 158.08 39.791 157.715 39.7926H146.276C145.91 39.791 145.56 39.6446 145.302 39.3855C145.044 39.1263 144.899 38.7756 144.899 38.4099C144.901 38.0453 145.047 37.696 145.304 37.4382C145.562 37.1803 145.911 37.0348 146.276 37.0332Z" fill="black"/>
<path d="M195.083 64.7705H189.379C188.053 64.7705 186.979 65.8451 186.979 67.1707V84.547C186.979 85.8726 188.053 86.9472 189.379 86.9472H195.083C196.409 86.9472 197.483 85.8726 197.483 84.547V67.1707C197.483 65.8451 196.409 64.7705 195.083 64.7705Z" fill="#639CFF"/>
<path opacity="0.8" d="M195.083 64.7705H189.379C188.053 64.7705 186.979 65.8451 186.979 67.1707V84.547C186.979 85.8726 188.053 86.9472 189.379 86.9472H195.083C196.409 86.9472 197.483 85.8726 197.483 84.547V67.1707C197.483 65.8451 196.409 64.7705 195.083 64.7705Z" fill="white"/>
<path d="M195.682 93.3457H188.78C187.785 93.3457 186.979 94.1523 186.979 95.1474V104.054C186.979 105.049 187.785 105.856 188.78 105.856H195.682C196.677 105.856 197.483 105.049 197.483 104.054V95.1474C197.483 94.1523 196.677 93.3457 195.682 93.3457Z" fill="#639CFF"/>
<path opacity="0.8" d="M195.682 93.3457H188.78C187.785 93.3457 186.979 94.1523 186.979 95.1474V104.054C186.979 105.049 187.785 105.856 188.78 105.856H195.682C196.677 105.856 197.483 105.049 197.483 104.054V95.1474C197.483 94.1523 196.677 93.3457 195.682 93.3457Z" fill="white"/>
<mask id="mask0_1419_5255" style="mask-type:luminance" maskUnits="userSpaceOnUse" x="106" y="44" width="87" height="158">
<path d="M192.467 44.7783H106.083V201.559H192.467V44.7783Z" fill="white"/>
</mask>
<g mask="url(#mask0_1419_5255)">
<path d="M119.102 197.782L123.501 198.207L128.08 187.739L123.681 187.308L119.102 197.782Z" fill="#E4897B"/>
<path d="M128.08 187.739L125.722 193.138H121.131L123.675 187.308L128.08 187.739Z" fill="#CE6F64"/>
<path d="M168.573 90.634L168.716 90.9572L168.902 91.3343C169.022 91.5857 169.159 91.8431 169.297 92.1004C169.578 92.6092 169.896 93.124 170.195 93.6148C170.825 94.6196 171.519 95.5833 172.272 96.4999C173.038 97.4076 173.856 98.271 174.72 99.0856C175.169 99.4807 175.606 99.8877 176.073 100.283L176.773 100.833L176.935 100.965C176.859 100.941 176.781 100.925 176.701 100.917C176.528 100.899 176.353 100.926 176.193 100.995C176.095 101.024 176.008 101.08 175.941 101.157C175.899 101.217 176.007 101.121 176.097 100.965C176.334 100.529 176.52 100.067 176.653 99.5884C176.982 98.426 177.24 97.2446 177.426 96.0509C177.629 94.8179 177.797 93.5549 177.928 92.292C178.06 91.029 178.198 89.7421 178.317 88.4851L180.628 88.4492C180.772 89.784 180.831 91.0829 180.885 92.4117C180.939 93.7405 180.915 95.0573 180.885 96.4041C180.832 97.7888 180.674 99.1675 180.412 100.528C180.261 101.312 180.018 102.075 179.688 102.803C179.449 103.317 179.121 103.786 178.718 104.185C178.407 104.479 178.041 104.709 177.641 104.862C177.175 105.036 176.675 105.098 176.181 105.041C175.78 104.989 175.391 104.867 175.031 104.682C174.888 104.61 174.748 104.53 174.612 104.443L174.385 104.293L173.511 103.695C172.912 103.3 172.386 102.863 171.841 102.426C170.764 101.526 169.754 100.55 168.818 99.5046C167.89 98.4499 167.036 97.3319 166.262 96.1587C165.879 95.5601 165.526 94.9616 165.185 94.363C165.017 94.0458 164.856 93.7345 164.7 93.4053L164.473 92.8965C164.395 92.717 164.335 92.5733 164.239 92.3279L168.573 90.634Z" fill="#E4897B"/>
<path d="M170.597 93.7285L166.574 99.2772L168.238 100.911L172.518 95.7636L170.597 93.7285Z" fill="#F5F5F5"/>
<path d="M164.287 86.4087C168.818 87.6059 171.943 93.9626 171.943 93.9626L166.712 101.295C166.712 101.295 160.415 93.376 160.576 90.874C160.732 88.2523 161.558 85.6725 164.287 86.4087Z" fill="#639CFF"/>
<path opacity="0.7" d="M164.287 86.4087C168.818 87.6059 171.943 93.9626 171.943 93.9626L166.712 101.295C166.712 101.295 160.415 93.376 160.576 90.874C160.732 88.2523 161.558 85.6725 164.287 86.4087Z" fill="white"/>
<path d="M168.196 88.7487C168.196 88.7487 169.687 90.5085 152.436 111.386L136.473 102.037C140.543 95.698 142.895 91.6937 147.594 76.5381C150.104 77.3823 152.548 78.4086 154.908 79.6087C157.413 80.8704 159.836 82.2878 162.163 83.8525C165.108 85.9594 168.196 88.7487 168.196 88.7487Z" fill="#639CFF"/>
<path opacity="0.7" d="M168.196 88.7487C168.196 88.7487 169.687 90.5085 152.436 111.386L136.473 102.037C140.543 95.698 142.895 91.6937 147.594 76.5381C150.104 77.3823 152.548 78.4086 154.908 79.6087C157.413 80.8704 159.836 82.2878 162.163 83.8525C165.108 85.9594 168.196 88.7487 168.196 88.7487Z" fill="white"/>
<path d="M166.125 86.9472C165 86.0135 163.558 84.8582 162.163 83.8526C159.848 82.2681 157.424 80.85 154.908 79.6089C153.496 78.8726 152.047 78.2262 150.814 77.7354C150.617 78.0646 150.778 79.0701 151.383 80.5426C153.681 83.5055 159.02 87.869 163.474 88.7369C165.545 88.4376 166.191 87.7792 166.125 86.9472Z" fill="#F5F5F5"/>
<path d="M151.383 80.542C152.724 83.531 154.51 86.2998 156.68 88.7543C158.939 88.9798 161.215 88.9798 163.474 88.7543C159.02 87.8684 153.681 83.5049 151.383 80.542Z" fill="#F5F5F5"/>
<path d="M152.454 111.387C152.454 111.387 152.711 152.4 145.438 164.24C137.873 176.552 128.008 191.57 128.008 191.57L119.467 191.157C119.467 191.157 129.427 168.938 133.186 158.625C138.363 144.409 140.758 104.539 140.758 104.539L152.454 111.387Z" fill="#639CFF"/>
<path opacity="0.4" d="M152.454 111.387C152.454 111.387 152.711 152.4 145.438 164.24C137.873 176.552 128.008 191.57 128.008 191.57L119.467 191.157C119.467 191.157 129.427 168.938 133.186 158.625C138.363 144.409 140.758 104.539 140.758 104.539L152.454 111.387Z" fill="black"/>
<path opacity="0.2" d="M143.367 112.529C141.984 113.703 140.795 115.086 139.842 116.629C139.573 119.682 139.243 123.112 138.866 126.703C141.47 123.166 143.529 116.959 143.367 112.529Z" fill="black"/>
<path d="M148.233 108.938C148.233 108.938 130.163 134.592 118.904 148.443C109.806 159.606 83.4692 167.597 83.4692 167.597L80.2549 162.21C80.2549 162.21 101.205 150.514 107.454 142.96C127.457 118.778 127.206 106.239 136.496 102.103L148.233 108.938Z" fill="#639CFF"/>
<path opacity="0.4" d="M148.233 108.938C148.233 108.938 130.163 134.592 118.904 148.443C109.806 159.606 83.4692 167.597 83.4692 167.597L80.2549 162.21C80.2549 162.21 101.205 150.514 107.454 142.96C127.457 118.778 127.206 106.239 136.496 102.103L148.233 108.938Z" fill="black"/>
<path d="M178.372 89.0483L177.175 84.2598L181.742 85.5886C181.742 85.5886 181.616 88.8088 180.036 89.8563L178.372 89.0483Z" fill="#E4897B"/>
<path d="M178.629 80.417L181.837 82.0391L181.759 85.6125L177.192 84.2837L178.629 80.417Z" fill="#E4897B"/>
<path d="M121.256 82.1767L117.066 79.6029L121.256 77.3643C121.256 77.3643 123.405 79.7585 123.01 81.614L121.256 82.1767Z" fill="#E4897B"/>
<path d="M115.409 75.8254L118.839 74.748L121.281 77.3638L117.073 79.6024L115.409 75.8254Z" fill="#E4897B"/>
<path d="M124.088 196.849H118.701C118.604 196.849 118.51 196.882 118.433 196.941C118.356 197.001 118.301 197.084 118.276 197.178L117.079 201.458C117.05 201.558 117.045 201.664 117.064 201.767C117.084 201.87 117.128 201.967 117.192 202.05C117.256 202.133 117.339 202.2 117.434 202.244C117.529 202.289 117.633 202.311 117.738 202.308C119.629 202.278 120.551 202.17 122.927 202.17C124.388 202.17 128.171 202.32 130.188 202.32C132.205 202.32 132.582 200.32 131.762 200.141C128.093 199.333 125.986 198.213 124.855 197.148C124.646 196.955 124.373 196.848 124.088 196.849Z" fill="#263238"/>
<path d="M136.789 100.959L135.233 101.971C135.113 102.049 135.179 102.24 135.365 102.348L152.125 112.146C152.268 112.23 152.43 112.23 152.49 112.146L153.471 110.799C153.537 110.704 153.471 110.548 153.304 110.458L137.143 100.995C137.093 100.957 137.034 100.933 136.971 100.927C136.909 100.92 136.846 100.931 136.789 100.959Z" fill="#263238"/>
<path d="M146.282 83.4032C145.151 84.307 144.073 85.0372 142.93 85.7974C141.787 86.5576 140.626 87.21 139.429 87.8565C137.026 89.1711 134.498 90.24 131.881 91.0468C131.558 91.1605 131.21 91.2383 130.881 91.3281C130.552 91.4179 130.235 91.5077 129.84 91.5915C128.982 91.784 128.097 91.8286 127.224 91.7232C126.298 91.6131 125.408 91.3026 124.614 90.8134C123.877 90.347 123.23 89.7508 122.705 89.0536C121.819 87.8186 121.184 86.4213 120.837 84.9415C120.66 84.2592 120.532 83.5651 120.454 82.8645C120.359 82.1662 120.313 81.4622 120.317 80.7575L122.615 80.56C122.892 81.7285 123.267 82.8717 123.734 83.9778C124.141 84.991 124.732 85.9204 125.476 86.7192C125.743 87.0203 126.069 87.2637 126.433 87.4346C126.797 87.6054 127.193 87.7001 127.595 87.7128C128.018 87.7096 128.437 87.643 128.84 87.5153C129.361 87.3477 129.971 87.1562 130.528 86.9526C132.832 86.0865 135.06 85.0314 137.19 83.7982C138.279 83.1997 139.321 82.5113 140.374 81.8469C141.428 81.1825 142.463 80.4343 143.367 79.752L146.282 83.4032Z" fill="#E4897B"/>
<path d="M138.879 81.835L140.95 88.096L142.895 86.9288L141.076 80.7217L138.879 81.835Z" fill="#F5F5F5"/>
<path d="M126.482 197.74C125.984 197.731 125.489 197.669 125.004 197.555C124.982 197.549 124.962 197.537 124.947 197.52C124.932 197.503 124.923 197.482 124.92 197.459C124.92 197.437 124.926 197.415 124.937 197.396C124.949 197.377 124.966 197.361 124.986 197.351C125.345 197.178 127.188 196.346 127.679 196.675C127.726 196.708 127.763 196.754 127.787 196.806C127.81 196.859 127.818 196.917 127.811 196.974C127.808 197.075 127.783 197.174 127.736 197.263C127.689 197.352 127.623 197.43 127.542 197.489C127.223 197.68 126.853 197.768 126.482 197.74ZM125.381 197.411C125.979 197.519 126.985 197.639 127.41 197.315C127.468 197.275 127.514 197.221 127.547 197.159C127.579 197.096 127.596 197.027 127.595 196.956C127.599 196.938 127.597 196.918 127.591 196.901C127.585 196.883 127.574 196.867 127.56 196.855C127.29 196.675 126.183 197.058 125.381 197.411Z" fill="#639CFF"/>
<path d="M125.027 197.555C125.006 197.564 124.983 197.564 124.961 197.555C124.945 197.543 124.932 197.527 124.926 197.507C124.919 197.488 124.919 197.467 124.926 197.447C124.926 197.364 125.392 195.406 126.47 195.544C126.751 195.574 126.823 195.718 126.841 195.825C126.913 196.34 125.68 197.322 125.045 197.573L125.027 197.555ZM126.374 195.73C125.728 195.73 125.339 196.777 125.177 197.25C125.776 196.909 126.649 196.131 126.608 195.831C126.608 195.783 126.542 195.748 126.428 195.736L126.374 195.73Z" fill="#639CFF"/>
<path d="M137.903 104.042L137.472 103.79C137.388 103.737 137.346 103.653 137.382 103.605L138.675 101.863C138.711 101.815 138.813 101.815 138.896 101.863L139.333 102.12C139.417 102.168 139.459 102.252 139.423 102.3L138.13 104.042C138.094 104.09 137.993 104.09 137.903 104.042Z" fill="#639CFF"/>
<path d="M150.802 111.59L150.371 111.332C150.287 111.284 150.246 111.201 150.281 111.153L151.574 109.411C151.61 109.363 151.712 109.363 151.796 109.411L152.233 109.662C152.317 109.716 152.358 109.8 152.317 109.848L151.03 111.59C150.994 111.638 150.892 111.638 150.802 111.59Z" fill="#639CFF"/>
<path d="M144.356 107.813L143.919 107.561C143.835 107.514 143.793 107.43 143.835 107.376L145.122 105.64C145.164 105.586 145.259 105.586 145.349 105.64L145.78 105.891C145.87 105.939 145.906 106.023 145.87 106.077L144.577 107.813C144.541 107.867 144.439 107.867 144.356 107.813Z" fill="#639CFF"/>
<path opacity="0.4" d="M137.903 104.042L137.472 103.79C137.388 103.737 137.346 103.653 137.382 103.605L138.675 101.863C138.711 101.815 138.813 101.815 138.896 101.863L139.333 102.12C139.417 102.168 139.459 102.252 139.423 102.3L138.13 104.042C138.094 104.09 137.993 104.09 137.903 104.042Z" fill="black"/>
<path opacity="0.4" d="M150.802 111.59L150.371 111.332C150.287 111.284 150.246 111.201 150.281 111.153L151.574 109.411C151.61 109.363 151.712 109.363 151.796 109.411L152.233 109.662C152.317 109.716 152.358 109.8 152.317 109.848L151.03 111.59C150.994 111.638 150.892 111.638 150.802 111.59Z" fill="black"/>
<path opacity="0.4" d="M144.356 107.813L143.919 107.561C143.835 107.514 143.793 107.43 143.835 107.376L145.122 105.64C145.164 105.586 145.259 105.586 145.349 105.64L145.78 105.891C145.87 105.939 145.906 106.023 145.87 106.077L144.577 107.813C144.541 107.867 144.439 107.867 144.356 107.813Z" fill="black"/>
<path d="M156.332 80.8056C156.332 77.2143 155.135 63.0822 161.025 61.8851C162.887 59.9218 172.11 59.7183 173.523 64.7103C175.391 71.2646 172.625 87.2581 172.625 87.2581L156.332 80.8056Z" fill="#263238"/>
<path d="M173.853 87.2937C173.833 87.2915 173.814 87.2854 173.797 87.2757C173.779 87.2661 173.764 87.2531 173.752 87.2375C173.74 87.2219 173.731 87.204 173.725 87.1849C173.72 87.1658 173.719 87.1458 173.721 87.1261C173.721 86.9645 175.667 70.965 173.518 64.6322C172.919 62.8964 171.255 61.6813 168.789 61.2024C165.581 60.574 162.109 61.3581 161.145 62.4714C161.117 62.4988 161.08 62.5142 161.041 62.5142C161.001 62.5142 160.964 62.4988 160.936 62.4714C160.908 62.4424 160.893 62.4038 160.893 62.3636C160.893 62.3235 160.908 62.2849 160.936 62.2559C162.061 60.951 165.838 60.2986 168.867 60.8912C171.441 61.388 173.2 62.6869 173.823 64.5185C175.99 70.9291 174.056 86.9825 174.038 87.1441C174.038 87.1668 174.033 87.1891 174.023 87.2095C174.013 87.2299 173.998 87.2479 173.981 87.2622C173.963 87.2764 173.942 87.2866 173.92 87.2921C173.898 87.2975 173.875 87.2981 173.853 87.2937Z" fill="#263238"/>
<path d="M160.415 71.8691C159.511 74.4669 157.464 79.01 154.92 79.6085C154.92 79.6085 154.172 82.3499 158.512 84.8878C163.3 87.6771 162.175 83.8523 162.175 83.8523C159.936 81.7095 161.127 79.818 162.642 78.2737L160.415 71.8691Z" fill="#E4897B"/>
<path d="M161.312 74.4785L162.629 78.2674C162.273 78.6252 161.947 79.0116 161.654 79.4226C160.744 78.6984 159.768 76.9326 160.271 75.8313C160.534 75.3216 160.887 74.8634 161.312 74.4785Z" fill="#CE6F64"/>
<path d="M160.451 66.6913C159.212 71.0429 158.595 72.8565 159.978 75.7955C162.055 80.2248 167.664 80.7934 170.154 76.9028C172.416 73.4012 174.056 66.8769 170.489 63.7344C169.707 63.0386 168.76 62.5535 167.738 62.3247C166.717 62.096 165.654 62.1312 164.649 62.427C163.645 62.7229 162.733 63.2696 161.998 64.0157C161.264 64.7617 160.731 65.6825 160.451 66.6913Z" fill="#E4897B"/>
<path d="M159.175 69.4326C162.27 70.5878 169.542 66.7511 171.524 64.3987C171.787 60.7714 163.281 62.202 163.281 62.202C163.281 62.202 158.744 60.8073 159.175 69.4326Z" fill="#263238"/>
<path d="M158.439 70.3009C158.238 71.1513 158.382 72.0468 158.84 72.7909C159.439 73.7726 160.54 73.3895 161.019 72.4198C161.45 71.534 161.648 69.9478 160.72 69.3073C160.514 69.1714 160.277 69.0891 160.031 69.068C159.784 69.0468 159.537 69.0874 159.31 69.1861C159.084 69.2847 158.886 69.4384 158.734 69.6331C158.582 69.8277 158.48 70.0573 158.439 70.3009Z" fill="#E4897B"/>
<path d="M166.49 70.1569C166.364 70.5041 166.448 70.8512 166.676 70.929C166.903 71.0068 167.184 70.7914 167.31 70.4442C167.436 70.097 167.346 69.7558 167.119 69.672C166.891 69.5882 166.61 69.8097 166.49 70.1569Z" fill="#263238"/>
<path d="M170.405 71.5398C170.285 71.8869 170.369 72.2281 170.597 72.3119C170.824 72.3957 171.105 72.1743 171.225 71.8271C171.345 71.4799 171.261 71.1328 171.04 71.0549C170.818 70.9771 170.531 71.1926 170.405 71.5398Z" fill="#263238"/>
<path d="M170.932 71.0371L171.847 71.091C171.847 71.091 171.189 71.5938 170.932 71.0371Z" fill="#263238"/>
<path d="M169.16 71.7676C169.192 72.6659 169.345 73.5559 169.615 74.4132C169.394 74.4781 169.161 74.4935 168.934 74.4583C168.706 74.4231 168.489 74.3382 168.298 74.2097L169.16 71.7676Z" fill="#DE5753"/>
<path d="M166.634 75.1549H166.598C166.128 75.0022 165.702 74.7395 165.354 74.3887C165.006 74.0378 164.747 73.6089 164.599 73.1377C164.593 73.1092 164.599 73.0797 164.614 73.0552C164.63 73.0308 164.654 73.0132 164.683 73.0061C164.696 73.0026 164.711 73.002 164.725 73.0044C164.739 73.0068 164.752 73.0121 164.764 73.02C164.776 73.0279 164.786 73.0382 164.794 73.0502C164.801 73.0623 164.806 73.0758 164.808 73.0899C164.953 73.5231 165.197 73.9167 165.52 74.2397C165.843 74.5627 166.237 74.8064 166.67 74.9514C166.694 74.9598 166.714 74.9764 166.727 74.9984C166.74 75.0203 166.745 75.0462 166.741 75.0713C166.736 75.0965 166.723 75.1193 166.704 75.1357C166.684 75.1521 166.659 75.161 166.634 75.1609V75.1549Z" fill="#263238"/>
<path d="M166.316 68.7867C166.268 68.7874 166.22 68.7717 166.182 68.742C166.143 68.7124 166.116 68.6707 166.104 68.6235C166.092 68.5764 166.097 68.5267 166.117 68.4824C166.137 68.4381 166.171 68.4019 166.214 68.3797C166.512 68.2116 166.845 68.1168 167.187 68.1032C167.528 68.0897 167.868 68.1578 168.178 68.3019C168.206 68.3133 168.231 68.3305 168.252 68.3524C168.273 68.3742 168.289 68.4002 168.299 68.4287C168.309 68.4571 168.313 68.4874 168.311 68.5176C168.309 68.5477 168.3 68.5771 168.286 68.6037C168.271 68.6303 168.252 68.6536 168.228 68.672C168.204 68.6905 168.176 68.7037 168.147 68.7108C168.117 68.7179 168.087 68.7187 168.057 68.7133C168.027 68.7078 167.999 68.6961 167.974 68.679C167.727 68.5693 167.457 68.5197 167.186 68.5342C166.916 68.5488 166.652 68.6271 166.418 68.7628C166.387 68.7792 166.352 68.7875 166.316 68.7867Z" fill="#263238"/>
<path d="M172.889 70.3727C172.842 70.3726 172.796 70.3566 172.759 70.3273C172.722 70.2979 172.696 70.257 172.685 70.2111C172.625 69.9476 172.504 69.702 172.331 69.4941C172.159 69.2861 171.94 69.1217 171.692 69.014C171.638 68.9949 171.593 68.9555 171.567 68.9041C171.542 68.8528 171.537 68.7934 171.554 68.7386C171.563 68.7114 171.577 68.6862 171.596 68.6647C171.615 68.6431 171.638 68.6256 171.663 68.6133C171.689 68.6009 171.717 68.594 171.746 68.5929C171.774 68.5918 171.803 68.5966 171.829 68.6069C172.146 68.737 172.427 68.9415 172.648 69.203C172.869 69.4645 173.023 69.7754 173.098 70.1093C173.106 70.1369 173.107 70.1655 173.103 70.1937C173.099 70.2218 173.09 70.2489 173.075 70.2734C173.061 70.2979 173.042 70.3193 173.019 70.3363C172.996 70.3534 172.97 70.3657 172.943 70.3727H172.889Z" fill="#263238"/>
<path d="M166.999 69.6602L167.915 69.714C167.915 69.714 167.274 70.2108 166.999 69.6602Z" fill="#263238"/>
<path d="M147.605 76.5379C145.72 76.089 139.92 80.5064 139.92 80.5064L142.38 88.3535C142.38 88.3535 148.443 84.9956 149.006 82.5235C149.563 79.9617 149.754 77.0527 147.605 76.5379Z" fill="#639CFF"/>
<path opacity="0.7" d="M147.605 76.5379C145.72 76.089 139.92 80.5064 139.92 80.5064L142.38 88.3535C142.38 88.3535 148.443 84.9956 149.006 82.5235C149.563 79.9617 149.754 77.0527 147.605 76.5379Z" fill="white"/>
</g>
<path d="M216.679 26.5996H172.266C170.361 26.5996 168.534 27.3564 167.187 28.7034C165.84 30.0504 165.083 31.8774 165.083 33.7823V47.5493C165.083 49.4542 165.84 51.2812 167.187 52.6282C168.534 53.9752 170.361 54.732 172.266 54.732H175.977V61.795L183.04 54.732H216.679C218.584 54.732 220.411 53.9752 221.758 52.6282C223.105 51.2812 223.862 49.4542 223.862 47.5493V33.7823C223.862 31.8774 223.105 30.0504 221.758 28.7034C220.411 27.3564 218.584 26.5996 216.679 26.5996Z" fill="#639CFF"/>
<path opacity="0.3" d="M216.679 26.5996H172.266C170.361 26.5996 168.534 27.3564 167.187 28.7034C165.84 30.0504 165.083 31.8774 165.083 33.7823V47.5493C165.083 49.4542 165.84 51.2812 167.187 52.6282C168.534 53.9752 170.361 54.732 172.266 54.732H175.977V61.795L183.04 54.732H216.679C218.584 54.732 220.411 53.9752 221.758 52.6282C223.105 51.2812 223.862 49.4542 223.862 47.5493V33.7823C223.862 31.8774 223.105 30.0504 221.758 28.7034C220.411 27.3564 218.584 26.5996 216.679 26.5996Z" fill="black"/>
<g opacity="0.54">
<path d="M215.638 32.3223H173.295C172.386 32.3223 171.649 33.0592 171.649 33.9683C171.649 34.8774 172.386 35.6144 173.295 35.6144H215.638C216.547 35.6144 217.284 34.8774 217.284 33.9683C217.284 33.0592 216.547 32.3223 215.638 32.3223Z" fill="#F5F5F5"/>
</g>
<g opacity="0.54">
<path d="M215.632 42.1565H188.493C188.055 42.1549 187.636 41.9803 187.326 41.6709C187.017 41.3614 186.842 40.9421 186.841 40.5044C186.842 40.0673 187.017 39.6487 187.327 39.3401C187.636 39.0316 188.056 38.8584 188.493 38.8584H215.632C216.068 38.8584 216.487 39.0318 216.796 39.3405C217.104 39.6492 217.278 40.0679 217.278 40.5044C217.278 40.9416 217.104 41.3608 216.796 41.6705C216.487 41.9801 216.069 42.1549 215.632 42.1565Z" fill="#F5F5F5"/>
</g>
<g opacity="0.54">
<path d="M180.436 42.1565H173.295C172.858 42.1549 172.44 41.9801 172.131 41.6705C171.823 41.3608 171.649 40.9416 171.649 40.5044C171.649 40.0679 171.823 39.6492 172.132 39.3405C172.44 39.0318 172.859 38.8584 173.295 38.8584H180.436C180.873 38.8584 181.292 39.0318 181.6 39.3405C181.909 39.6492 182.082 40.0679 182.082 40.5044C182.082 40.9416 181.909 41.3608 181.601 41.6705C181.292 41.9801 180.873 42.1549 180.436 42.1565Z" fill="#F5F5F5"/>
</g>
<g opacity="0.54">
<path d="M205.061 48.6926H173.295C172.859 48.6926 172.44 48.5192 172.132 48.2105C171.823 47.9018 171.649 47.4831 171.649 47.0466C171.649 46.6095 171.823 46.1902 172.131 45.8805C172.44 45.5709 172.858 45.3961 173.295 45.3945H205.061C205.498 45.3961 205.917 45.5709 206.225 45.8805C206.534 46.1902 206.707 46.6095 206.707 47.0466C206.707 47.4831 206.534 47.9018 206.225 48.2105C205.916 48.5192 205.498 48.6926 205.061 48.6926Z" fill="#F5F5F5"/>
</g>
</svg>
